<svg width="1040" height="1040" viewBox="0 0 1040 1040" fill="none" xmlns="http://www.w3.org/2000/svg">
<circle cx="520" cy="520" r="520" fill="#90C4FE"/>
<path fill-rule="evenodd" clip-rule="evenodd" d="M637.812 696.707C761.433 648.687 849.062 528.562 849.062 387.969C849.062 205.111 700.827 56.875 517.969 56.875C335.111 56.875 186.875 205.111 186.875 387.969C186.875 523.895 268.785 640.691 385.938 691.69V808.438H637.812V696.707Z" fill="#FFDB4C"/>
<rect x="802.853" y="597.404" width="168.647" height="35.5917" rx="17.7958" transform="rotate(45 802.853 597.404)" fill="black" fill-opacity="0.7"/>
<rect x="850.28" y="520.714" width="85.8748" height="35.5917" rx="17.7958" transform="rotate(22.5 850.28 520.714)" fill="black" fill-opacity="0.7"/>
<path d="M868.693 442.413C868.693 432.584 876.66 424.617 886.488 424.617H989.704C999.533 424.617 1007.5 432.584 1007.5 442.413C1007.5 452.241 999.533 460.209 989.704 460.209H886.488C876.66 460.209 868.693 452.241 868.693 442.413Z" fill="black" fill-opacity="0.7"/>
<rect width="168.647" height="35.5917" rx="17.7958" transform="matrix(-0.707107 0.707107 0.707107 0.707107 237.147 599.35)" fill="black" fill-opacity="0.7"/>
<rect width="85.8748" height="35.5917" rx="17.7958" transform="matrix(-0.92388 0.382683 0.382683 0.92388 189.72 522.66)" fill="black" fill-opacity="0.7"/>
<path d="M171.308 444.358C171.308 434.53 163.34 426.562 153.512 426.562H50.2959C40.4675 426.562 32.5 434.53 32.5 444.358C32.5 454.187 40.4675 462.154 50.2959 462.154H153.512C163.34 462.154 171.308 454.187 171.308 444.358Z" fill="black" fill-opacity="0.7"/>
<path fill-rule="evenodd" clip-rule="evenodd" d="M780 367.556C780 507.824 700.699 628.667 586.552 683.462V808.346H655.614V689.183C769.762 636.937 849.062 521.713 849.062 387.969C849.062 243.857 756.991 121.249 628.463 75.7606C719.65 137.607 780 245.19 780 367.556Z" fill="#F1CB32"/>
<path fill-rule="evenodd" clip-rule="evenodd" d="M651.201 875C653.099 865.824 654.062 856.452 654.062 847.031H520L385.938 847.031C385.938 864.903 389.405 882.6 396.142 899.112C402.88 915.624 412.755 930.627 425.203 943.264C437.652 955.902 452.431 965.926 468.696 972.765C484.962 979.605 502.395 983.125 520 983.125C537.605 983.125 555.038 979.605 571.303 972.765C582.648 967.995 593.27 961.675 602.882 954H516.5C515.119 954 514 952.881 514 951.5C514 950.119 515.119 949 516.5 949H608.787C610.845 947.153 612.849 945.241 614.796 943.264C622.579 935.364 629.355 926.54 634.988 917H488.5C487.119 917 486 915.881 486 914.5C486 913.119 487.119 912 488.5 912H637.8C640.036 907.822 642.059 903.521 643.858 899.112C646.396 892.892 648.47 886.503 650.069 880H547.5C546.119 880 545 878.881 545 877.5C545 876.119 546.119 875 547.5 875H651.201Z" fill="black" fill-opacity="0.7"/>
</svg>
