<svg width="975" height="927" viewBox="0 0 975 927" fill="none" xmlns="http://www.w3.org/2000/svg">
<mask id="path-1-inside-1" fill="white">
<path fill-rule="evenodd" clip-rule="evenodd" d="M605.312 639.832C728.933 591.812 816.562 471.687 816.562 331.094C816.562 148.236 668.327 0 485.469 0C302.611 0 154.375 148.236 154.375 331.094C154.375 467.02 236.285 583.816 353.438 634.815V751.562H605.312V639.832Z"/>
</mask>
<path d="M605.312 639.832L596.26 616.529C586.646 620.263 580.312 629.518 580.312 639.832H605.312ZM353.438 634.815H378.438C378.438 624.866 372.538 615.864 363.416 611.892L353.438 634.815ZM353.438 751.562H328.438C328.438 765.37 339.63 776.562 353.438 776.562V751.562ZM605.312 751.562V776.562C619.12 776.562 630.312 765.37 630.312 751.562H605.312ZM791.562 331.094C791.562 461.031 710.589 572.118 596.26 616.529L614.365 663.136C747.277 611.507 841.562 482.342 841.562 331.094H791.562ZM485.469 25C654.52 25 791.562 162.043 791.562 331.094H841.562C841.562 134.429 682.134 -25 485.469 -25V25ZM179.375 331.094C179.375 162.043 316.418 25 485.469 25V-25C288.804 -25 129.375 134.429 129.375 331.094H179.375ZM363.416 611.892C255.057 564.722 179.375 456.718 179.375 331.094H129.375C129.375 477.323 217.512 602.91 343.459 657.737L363.416 611.892ZM378.438 751.562V634.815H328.438V751.562H378.438ZM605.312 726.562H353.438V776.562H605.312V726.562ZM580.312 639.832V751.562H630.312V639.832H580.312Z" fill="white" mask="url(#path-1-inside-1)"/>
<rect x="770.353" y="540.529" width="168.647" height="35.5917" rx="17.7958" transform="rotate(45 770.353 540.529)" fill="white"/>
<rect x="817.78" y="463.839" width="85.8748" height="35.5917" rx="17.7958" transform="rotate(22.5 817.78 463.839)" fill="white"/>
<path d="M836.192 385.538C836.192 375.709 844.16 367.742 853.988 367.742H957.204C967.032 367.742 975 375.709 975 385.538C975 395.366 967.032 403.334 957.204 403.334H853.988C844.16 403.334 836.192 395.366 836.192 385.538Z" fill="white"/>
<rect width="168.647" height="35.5917" rx="17.7958" transform="matrix(-0.707107 0.707107 0.707107 0.707107 204.647 542.475)" fill="white"/>
<rect width="85.8748" height="35.5917" rx="17.7958" transform="matrix(-0.92388 0.382683 0.382683 0.92388 157.22 465.785)" fill="white"/>
<path d="M138.808 387.483C138.808 377.655 130.84 369.688 121.012 369.688H17.7959C7.96751 369.688 6.10352e-05 377.655 6.10352e-05 387.483C6.10352e-05 397.312 7.96753 405.279 17.7959 405.279H121.012C130.84 405.279 138.808 397.312 138.808 387.483Z" fill="white"/>
<path fill-rule="evenodd" clip-rule="evenodd" d="M747.5 310.681C747.5 450.949 668.199 571.792 554.052 626.587V751.471H623.115V632.308C737.262 580.062 816.563 464.839 816.563 331.094C816.563 186.982 724.491 64.3743 595.963 18.8856C687.15 80.7323 747.5 188.315 747.5 310.681Z" fill="white"/>
<path fill-rule="evenodd" clip-rule="evenodd" d="M618.701 818.125C620.599 808.949 621.562 799.577 621.562 790.156H487.5L353.438 790.156C353.438 808.028 356.905 825.725 363.642 842.237C370.38 858.749 380.255 873.752 392.703 886.389C405.152 899.027 419.931 909.051 436.196 915.89C452.462 922.73 469.895 926.25 487.5 926.25C505.105 926.25 522.538 922.73 538.803 915.89C550.148 911.12 560.77 904.8 570.382 897.125H484C482.619 897.125 481.5 896.006 481.5 894.625C481.5 893.244 482.619 892.125 484 892.125H576.287C578.345 890.278 580.349 888.366 582.296 886.389C590.079 878.489 596.855 869.665 602.488 860.125H456C454.619 860.125 453.5 859.006 453.5 857.625C453.5 856.244 454.619 855.125 456 855.125H605.3C607.536 850.947 609.559 846.646 611.358 842.237C613.896 836.017 615.97 829.628 617.569 823.125H515C513.619 823.125 512.5 822.006 512.5 820.625C512.5 819.244 513.619 818.125 515 818.125H618.701Z" fill="white"/>
</svg>
