<svg width="510" height="724" viewBox="0 0 510 724" fill="none" xmlns="http://www.w3.org/2000/svg">
<mask id="path-1-inside-1" fill="white">
<path fill-rule="evenodd" clip-rule="evenodd" d="M20 0C8.95431 0 0 8.95431 0 20V715C0 717.509 0.461921 719.91 1.30535 722.122C2.26945 724.651 8.61239 721.481 10.3334 719.392V719.392L246.782 432.369C250.782 427.514 258.218 427.514 262.218 432.369L498.667 719.392V719.392C500.418 721.517 507.282 725.443 508.373 722.914C509.42 720.487 510 717.811 510 715V20C510 8.9543 501.046 0 490 0H20Z"/>
</mask>
<path d="M246.782 432.369L208.19 400.578L208.19 400.578L246.782 432.369ZM262.218 432.369L300.81 400.578L300.81 400.578L262.218 432.369ZM508.373 722.914L462.462 703.112L508.373 722.914ZM1.30535 722.122L48.0259 704.313L1.30535 722.122ZM50 20C50 36.5685 36.5686 50 20 50V-50C-18.6599 -50 -50 -18.6599 -50 20H50ZM50 715V20H-50V715H50ZM48.0259 704.313C49.3168 707.699 50 711.328 50 715H-50C-50 723.69 -48.393 732.12 -45.4152 739.932L48.0259 704.313ZM48.9248 751.183L285.373 464.161L208.19 400.578L-28.2581 687.6L48.9248 751.183ZM285.373 464.161C269.373 483.583 239.627 483.583 223.627 464.161L300.81 400.578C276.81 371.444 232.19 371.444 208.19 400.578L285.373 464.161ZM223.627 464.161L460.075 751.183L537.258 687.6L300.81 400.578L223.627 464.161ZM460 715C460 710.875 460.861 706.822 462.462 703.112L554.285 742.717C557.979 734.152 560 724.747 560 715H460ZM460 20V715H560V20H460ZM490 50C473.431 50 460 36.5686 460 20H560C560 -18.6599 528.66 -50 490 -50V50ZM20 50H490V-50H20V50ZM460.075 751.183C464.779 756.893 469.848 760.602 472.32 762.312C475.46 764.485 479.163 766.658 483.27 768.504C486.483 769.948 494.056 773.109 503.879 773.653C513.343 774.177 541.71 771.869 554.285 742.717L462.462 703.112C467.566 691.278 476.859 682.544 487.514 677.838C496.862 673.709 505.103 673.568 509.406 673.806C517.58 674.258 523.124 676.78 524.265 677.293C526.3 678.208 527.891 679.159 529.217 680.076C529.875 680.532 533.429 682.953 537.258 687.6L460.075 751.183ZM-45.4152 739.932C-35.1803 766.782 -10.3509 772.635 1.17949 773.027C11.6505 773.384 19.8675 770.545 23.456 769.167C27.953 767.441 32.022 765.283 35.5082 763.025C38.3663 761.175 43.8587 757.333 48.9247 751.183L-28.258 687.6C-24.0525 682.495 -19.9983 679.833 -18.8436 679.085C-17.0609 677.931 -14.9606 676.799 -12.3849 675.811C-10.7178 675.171 -4.37491 672.78 4.58191 673.085C9.40559 673.25 17.6022 674.285 26.4027 679.232C36.1594 684.718 43.9147 693.527 48.0259 704.313L-45.4152 739.932Z" fill="black" mask="url(#path-1-inside-1)"/>
</svg>
